<?xml version="1.0" encoding="UTF-8" standalone="no"?>
<!-- Generator: Adobe Illustrator 16.0.0, SVG Export Plug-In . SVG Version: 6.00 Build 0)  -->

<svg
   xmlns:dc="http://purl.org/dc/elements/1.1/"
   xmlns:cc="http://creativecommons.org/ns#"
   xmlns:rdf="http://www.w3.org/1999/02/22-rdf-syntax-ns#"
   xmlns:svg="http://www.w3.org/2000/svg"
   xmlns="http://www.w3.org/2000/svg"
   xmlns:sodipodi="http://sodipodi.sourceforge.net/DTD/sodipodi-0.dtd"
   xmlns:inkscape="http://www.inkscape.org/namespaces/inkscape"
   version="1.1"
   id="レイヤー_1"
   x="0px"
   y="0px"
   width="140"
   height="128"
   viewBox="0 0 140 128"
   enable-background="new 0 0 128 128"
   xml:space="preserve"
   sodipodi:docname="peachcat.svg"
   inkscape:version="0.92.3 (2405546, 2018-03-11)"
   inkscape:export-filename="C:\Users\Leondro Lio\Pictures\peachcat.png"
   inkscape:export-xdpi="96"
   inkscape:export-ydpi="96"><metadata
   id="metadata17"><rdf:RDF><cc:Work
       rdf:about=""><dc:format>image/svg+xml</dc:format><dc:type
         rdf:resource="http://purl.org/dc/dcmitype/StillImage" /><dc:title></dc:title></cc:Work></rdf:RDF></metadata><defs
   id="defs15"><marker
     style="overflow:visible"
     id="marker5136"
     refX="0"
     refY="0"
     orient="auto"
     inkscape:stockid="DistanceStart"
     inkscape:isstock="true"><g
       id="g5134"
       style="fill:#000000;fill-opacity:1;stroke:#000000;stroke-opacity:1"><path
         style="fill:#000000;fill-opacity:1;stroke:#000000;stroke-width:1.14999998;stroke-linecap:square;stroke-opacity:1"
         d="M 0,0 H 2"
         id="path5128"
         inkscape:connector-curvature="0" /><path
         style="fill:#000000;fill-opacity:1;fill-rule:evenodd;stroke:#000000;stroke-opacity:1"
         d="M 0,0 13,4 9,0 13,-4 Z"
         id="path5130"
         inkscape:connector-curvature="0" /><path
         style="fill:#000000;fill-opacity:1;stroke:#000000;stroke-width:1;stroke-linecap:square;stroke-opacity:1"
         d="M 0,-4 V 40"
         id="path5132"
         inkscape:connector-curvature="0" /></g></marker><marker
     inkscape:stockid="StopS"
     orient="auto"
     refY="0"
     refX="0"
     id="StopS"
     style="overflow:visible"
     inkscape:isstock="true"><path
       id="path4776"
       d="M 0,5.65 V -5.65"
       style="fill:none;fill-opacity:0.75;fill-rule:evenodd;stroke:#000000;stroke-width:1.00000003pt;stroke-opacity:1"
       transform="scale(0.2)"
       inkscape:connector-curvature="0" /></marker><marker
     inkscape:stockid="DotM"
     orient="auto"
     refY="0"
     refX="0"
     id="DotM"
     style="overflow:visible"
     inkscape:isstock="true"><path
       id="path4665"
       d="m -2.5,-1 c 0,2.76 -2.24,5 -5,5 -2.76,0 -5,-2.24 -5,-5 0,-2.76 2.24,-5 5,-5 2.76,0 5,2.24 5,5 z"
       style="fill:#000000;fill-opacity:1;fill-rule:evenodd;stroke:#000000;stroke-width:1.00000003pt;stroke-opacity:1"
       transform="matrix(0.4,0,0,0.4,2.96,0.4)"
       inkscape:connector-curvature="0" /></marker><marker
     style="overflow:visible"
     id="DistanceEnd"
     refX="0"
     refY="0"
     orient="auto"
     inkscape:stockid="DistanceEnd"
     inkscape:isstock="true"><g
       id="g2301"
       style="fill:#000000;fill-opacity:1;stroke:#000000;stroke-opacity:1"><path
         style="fill:#000000;fill-opacity:1;stroke:#000000;stroke-width:1.14999998;stroke-linecap:square;stroke-opacity:1"
         d="M 0,0 H -2"
         id="path2316"
         inkscape:connector-curvature="0" /><path
         style="fill:#000000;fill-opacity:1;fill-rule:evenodd;stroke:#000000;stroke-opacity:1"
         d="m 0,0 -13,4 4,-4 -4,-4 z"
         id="path2312"
         inkscape:connector-curvature="0" /><path
         style="fill:#000000;fill-opacity:1;stroke:#000000;stroke-width:1;stroke-linecap:square;stroke-opacity:1"
         d="M 0,-4 V 40"
         id="path2314"
         inkscape:connector-curvature="0" /></g></marker><marker
     style="overflow:visible"
     id="DistanceStart"
     refX="0"
     refY="0"
     orient="auto"
     inkscape:stockid="DistanceStart"
     inkscape:isstock="true"><g
       id="g2300"
       style="fill:#000000;fill-opacity:1;stroke:#000000;stroke-opacity:1"><path
         style="fill:#000000;fill-opacity:1;stroke:#000000;stroke-width:1.14999998;stroke-linecap:square;stroke-opacity:1"
         d="M 0,0 H 2"
         id="path2306"
         inkscape:connector-curvature="0" /><path
         style="fill:#000000;fill-opacity:1;fill-rule:evenodd;stroke:#000000;stroke-opacity:1"
         d="M 0,0 13,4 9,0 13,-4 Z"
         id="path2302"
         inkscape:connector-curvature="0" /><path
         style="fill:#000000;fill-opacity:1;stroke:#000000;stroke-width:1;stroke-linecap:square;stroke-opacity:1"
         d="M 0,-4 V 40"
         id="path2304"
         inkscape:connector-curvature="0" /></g></marker><marker
     inkscape:stockid="Scissors"
     orient="auto"
     refY="0"
     refX="0"
     id="Scissors"
     style="overflow:visible"
     inkscape:isstock="true"><path
       id="schere"
       d="M 9.0898857,-3.6061018 C 8.1198849,-4.7769976 6.3697607,-4.7358294 5.0623558,-4.2327734 l -8.2124046,3.0779029 c -2.3882933,-1.3067135 -4.7482873,-0.9325372 -4.7482873,-1.5687873 0,-0.4973164 0.4566662,-0.3883222 0.3883068,-1.6831941 -0.065635,-1.2432767 -1.3635771,-2.1630796 -2.5903987,-2.0816435 -1.227271,-0.00735 -2.499439,0.9331613 -2.510341,2.2300611 -0.09143,1.3063864 1.007209,2.5196896 2.306764,2.6052316 1.5223406,0.2266616 4.218258,-0.6955566 5.482945,1.57086006 -0.9422847,1.73825774 -2.6140244,1.74307674 -4.1255107,1.65607034 -1.2548743,-0.072235 -2.7620933,0.2873979 -3.3606483,1.5208605 -0.578367,1.1820862 -0.0112,2.8646022 1.316749,3.226412 1.3401912,0.4918277 3.1806689,-0.129711 3.4993722,-1.6707242 0.2456585,-1.187823 -0.5953659,-1.7459574 -0.2725074,-2.1771537 0.2436135,-0.32536 1.7907806,-0.1368452 4.5471053,-1.3748244 L 5.6763468,4.2330688 C 6.8000164,4.5467672 8.1730685,4.5362646 9.1684433,3.4313614 l -9.22008423,-3.48508362 z m -18.3078016,-1.900504 c 1.294559,0.7227998 1.1888392,2.6835702 -0.1564272,3.0632889 -1.2165179,0.423661 -2.7710269,-0.7589694 -2.3831779,-2.0774648 0.227148,-1.0818519 1.653387,-1.480632 2.5396051,-0.9858241 z m 0.056264,8.0173649 c 1.3508301,0.4988648 1.1214429,2.7844356 -0.2522207,3.091609 -0.9110594,0.3163391 -2.2135494,-0.1387976 -2.3056964,-1.2121394 -0.177609,-1.305055 1.356085,-2.4841482 2.5579171,-1.8794696 z"
       style="fill:#000000;fill-opacity:1;stroke:#000000;stroke-opacity:1"
       inkscape:connector-curvature="0" /></marker></defs><sodipodi:namedview
   pagecolor="#ffffff"
   bordercolor="#666666"
   borderopacity="1"
   objecttolerance="10"
   gridtolerance="10"
   guidetolerance="10"
   inkscape:pageopacity="0"
   inkscape:pageshadow="2"
   inkscape:window-width="958"
   inkscape:window-height="1018"
   id="namedview13"
   showgrid="false"
   inkscape:zoom="4"
   inkscape:cx="33.084981"
   inkscape:cy="41.649878"
   inkscape:window-x="953"
   inkscape:window-y="0"
   inkscape:window-maximized="0"
   inkscape:current-layer="layer5"
   showguides="true"
   inkscape:snap-smooth-nodes="true" />

<g
   inkscape:groupmode="layer"
   id="layer3"
   inkscape:label="Cat"><path
     sodipodi:nodetypes="cszccczscsccc"
     id="path2"
     d="m 133.69646,79.125305 c 2.22788,-8.482518 2.70348,-17.004848 0.98361,-24.860447 -0.38904,-1.776976 4.9521,-31.108778 2.31449,-34.740818 C 134.35695,15.892 108.94426,19.321905 106.17064,17.725692 100.75097,15.385103 99.256822,15.190418 95.466467,14.495305 85.109955,12.589589 77.706661,12.668019 67.226261,13.758541 64.596919,14.220978 41.820741,1.2641479 37.440566,4.3772889 33.060391,7.4904298 32.194652,30.58683 29.891064,33.40627 16.680327,49.575348 6.6377166,79.707829 8.7864666,98.675305 c 0,13.629995 28.1700004,24.689995 62.9300004,24.689995 32.579993,0 59.369993,-9.73 62.589993,-22.16999 0.22,-0.83 0.33,-1.670005 0.33,-2.520005 0.01,-6.48 -4.12,-7.46 -0.94,-19.55 z"
     inkscape:connector-curvature="0"
     style="fill:#fcc21b" /></g><g
   inkscape:groupmode="layer"
   id="layer4"
   inkscape:label="Eyes"><path
     id="path4"
     d="m 39.026467,44.305305 c 2.28,-4.54 7.2,-6.69 10.99,-4.84 3.78,1.86 5.01,7.03 2.74,11.56 -2.27,4.53 -7.18,6.69 -10.97,4.83 -3.78,-1.86 -5.02,-7.04 -2.76,-11.55 z"
     inkscape:connector-curvature="0"
     style="fill:#2f2f2f" /><path
     id="path8"
     d="m 92.056467,56.235305 c -1.09,5.07 -5.41,8.47 -9.65,7.59 -4.27,-0.89 -6.84,-5.72 -5.77,-10.79 1.09,-5.08 5.41,-8.48 9.67,-7.59 4.25,0.87 6.83,5.69 5.75,10.79 z"
     inkscape:connector-curvature="0"
     style="fill:#2f2f2f" /></g><g
   inkscape:groupmode="layer"
   id="layer6"
   inkscape:label="Mouth Lines"><path
     sodipodi:nodetypes="czzzc"
     inkscape:connector-curvature="0"
     id="path88"
     d="m 43.189538,66.047435 c 0,0 3.077929,12.819704 4.436641,13.072675 1.358712,0.25296 10.369812,-10.399801 12.31448,-10.038529 1.944669,0.361276 5.744828,12.387844 7.563063,12.763535 1.818235,0.375692 12.156301,-9.605889 12.156301,-9.605889"
     style="fill:none;stroke:#2f2f2f;stroke-width:3.63400006;stroke-linecap:round;stroke-linejoin:miter;stroke-miterlimit:4;stroke-dasharray:none;stroke-opacity:1" /></g><g
   inkscape:groupmode="layer"
   id="layer7"
   inkscape:label="Whiskers"><path
     style="fill:none;stroke:#878787;stroke-width:3;stroke-linecap:round;stroke-linejoin:miter;stroke-miterlimit:4;stroke-dasharray:none;stroke-opacity:1"
     d="M 91.281638,65.819619 126.03565,59.957495"
     id="path5323"
     inkscape:connector-curvature="0" /><path
     style="fill:none;stroke:#878787;stroke-width:3;stroke-linecap:round;stroke-linejoin:miter;stroke-miterlimit:4;stroke-dasharray:none;stroke-opacity:1"
     d="m 90.444191,74.194081 32.660399,0.418723"
     id="path5325"
     inkscape:connector-curvature="0" /><path
     style="fill:none;stroke:#878787;stroke-width:3;stroke-linecap:round;stroke-linejoin:miter;stroke-miterlimit:4;stroke-dasharray:none;stroke-opacity:1"
     d="M 34.335296,56.188987 7.537016,44.046017"
     id="path5327"
     inkscape:connector-curvature="0" /><path
     style="fill:none;stroke:#878787;stroke-width:3;stroke-linecap:round;stroke-linejoin:miter;stroke-miterlimit:4;stroke-dasharray:none;stroke-opacity:1"
     d="M 3.3497849,56.60771 33.916572,64.144725"
     id="path5329"
     inkscape:connector-curvature="0"
     sodipodi:nodetypes="cc" /></g><g
   inkscape:groupmode="layer"
   id="layer2"
   inkscape:label="Peach Behind"
   style="display:inline"><path
     style="fill:#5c913b;fill-opacity:1;stroke:none;stroke-width:1.07077694px;stroke-linecap:butt;stroke-linejoin:miter;stroke-opacity:1"
     d="m 38.857323,91.102913 c 0,0 19.184454,-6.901273 19.207447,3.615239 -15.694517,4.626997 -19.207447,-3.615239 -19.207447,-3.615239 z"
     id="path4796"
     inkscape:connector-curvature="0"
     sodipodi:nodetypes="ccc" /></g><g
   inkscape:groupmode="layer"
   id="layer5"
   inkscape:label="Peach"><path
     style="fill:#ff886c;fill-opacity:1;stroke:none;stroke-width:1.29532278px;stroke-linecap:butt;stroke-linejoin:miter;stroke-opacity:1"
     d="m 58.06477,94.718152 c -5.516169,-4.678735 -15.160817,-3.614761 -20.177847,6.690488 -6.237389,15.18669 15.186683,25.22073 15.186683,25.22073 0,0 18.436596,-2.00913 21.695262,-15.86464 C 78.027534,96.909197 65.135055,92.456852 58.06477,94.718152 Z"
     id="path4798"
     inkscape:connector-curvature="0"
     sodipodi:nodetypes="ccczc" /></g><g
   inkscape:groupmode="layer"
   id="layer8"
   inkscape:label="Peach Front"><path
     style="fill:none;stroke:#dd2e44;stroke-width:2.70000005;stroke-linecap:round;stroke-linejoin:miter;stroke-miterlimit:4;stroke-dasharray:none;stroke-opacity:1"
     d="m 56.561,99.247885 c 0,0 -7.254,10.214825 -3.70102,21.910065"
     id="path4837"
     inkscape:connector-curvature="0" /><path
     style="display:inline;fill:#77b255;fill-opacity:1;stroke:none;stroke-width:1.03221536px;stroke-linecap:butt;stroke-linejoin:miter;stroke-opacity:1"
     d="m 77.678239,95.710375 c -7.260585,-3.403247 -15.46997,-6.683668 -19.613469,-0.992223 0.495607,6.648428 12.828112,3.749023 19.613469,0.992223 z"
     id="path4794"
     inkscape:connector-curvature="0"
     sodipodi:nodetypes="ccc" /></g><g
   inkscape:groupmode="layer"
   id="layer1"
   inkscape:label="Arms"><path
     style="fill:#fcc21b;fill-opacity:1;stroke:#2f2f2f;stroke-width:2.85842204;stroke-linecap:round;stroke-linejoin:miter;stroke-miterlimit:4;stroke-dasharray:none;stroke-opacity:1"
     d="m 26.61395,98.631634 c 0,0 27.176277,5.973936 10.949442,8.510256 -16.226837,2.53632 -16.437758,2.50172 -16.437758,2.50172"
     id="path3793"
     inkscape:connector-curvature="0" /><path
     style="fill:#fcc21b;fill-opacity:1;stroke:#2f2f2f;stroke-width:2.49087262;stroke-linecap:round;stroke-linejoin:miter;stroke-miterlimit:4;stroke-dasharray:none;stroke-opacity:1"
     d="m 91.717387,106.66727 c 0,0 -32.220814,-2.23496 -16.948519,4.09746 15.272287,6.33241 14.713549,6.51865 14.713549,6.51865"
     id="path3801"
     inkscape:connector-curvature="0" /></g></svg>